<svg class="letters" fill="#fff" xmlns:dc="http://purl.org/dc/elements/1.1/" xmlns:cc="http://creativecommons.org/ns#" xmlns:rdf="http://www.w3.org/1999/02/22-rdf-syntax-ns#" xmlns:svg="http://www.w3.org/2000/svg" xmlns="http://www.w3.org/2000/svg" xmlns:sodipodi="http://sodipodi.sourceforge.net/DTD/sodipodi-0.dtd" xmlns:inkscape="http://www.inkscape.org/namespaces/inkscape" width="3056px" height="446px" viewBox="0 0 3056 446" version="1.1" id="SVGRoot" inkscape:version="0.92.4 (5da689c313, 2019-01-14)" sodipodi:docname="dibujo.svg"> <defs id="defs1688" /> <sodipodi:namedview id="base" pagecolor="#ffffff" bordercolor="#666666" borderopacity="1.0" inkscape:pageopacity="0.0" inkscape:pageshadow="2" inkscape:zoom="0.49497475" inkscape:cx="939.1851" inkscape:cy="269.33509" inkscape:document-units="px" inkscape:current-layer="layer1" showgrid="false" inkscape:window-width="1366" inkscape:window-height="707" inkscape:window-x="0" inkscape:window-y="24" inkscape:window-maximized="1" /> <metadata id="metadata1691"> <rdf:RDF> <cc:Work rdf:about=""> <dc:format>image/svg+xml</dc:format> <dc:type rdf:resource="http://purl.org/dc/dcmitype/StillImage" /> <dc:title></dc:title> </cc:Work> </rdf:RDF> </metadata> <g inkscape:label="Capa 1" inkscape:groupmode="layer" id="layer1"> <g transform="matrix(3.251626,0,0,3.251626,-649.24756,2217.9786)" id="g1005"> <path inkscape:connector-curvature="0" id="path973" d="m 365.33363,-682.08973 c 4.44973,0 8.07207,1.38002 10.86609,4.13956 2.79403,2.75953 4.19136,6.20895 4.19136,10.34824 0,4.48422 -1.39733,8.22025 -4.19136,11.20976 -2.79402,2.8745 -6.41636,4.31259 -10.86609,4.31259 -4.44977,0 -8.07092,-1.43809 -10.86495,-4.31259 -2.79403,-2.87452 -4.19131,-6.43886 -4.19131,-10.6931 0,-4.25429 1.39728,-7.81861 4.19131,-10.69311 2.79403,-2.87452 6.41518,-4.31135 10.86495,-4.31135 z" style="opacity:1;;fill-opacity:1;fill-rule:nonzero;stroke:none;stroke-width:15.10882378;stroke-linecap:butt;stroke-linejoin:round;stroke-miterlimit:4;stroke-dasharray:none;stroke-opacity:1" /> <path inkscape:connector-curvature="0" id="path971" d="m 788.86368,-682.08973 c 4.44977,0 8.07218,1.38002 10.86621,4.13956 2.79401,2.75953 4.19134,6.20895 4.19134,10.34824 0,4.48422 -1.39733,8.22025 -4.19134,11.20976 -2.79403,2.8745 -6.41644,4.31259 -10.86621,4.31259 -4.44974,0 -8.07083,-1.43809 -10.86486,-4.31259 -2.79404,-2.87452 -4.19137,-6.43886 -4.19137,-10.6931 0,-4.25429 1.39733,-7.81861 4.19137,-10.69311 2.79403,-2.87452 6.41512,-4.31135 10.86486,-4.31135 z" style="opacity:1;;fill-opacity:1;fill-rule:nonzero;stroke:none;stroke-width:15.10882378;stroke-linecap:butt;stroke-linejoin:round;stroke-miterlimit:4;stroke-dasharray:none;stroke-opacity:1" /> <path inkscape:connector-curvature="0" id="path969" d="m 966.00282,-675.70798 c 3.6219,0 7.03671,0.45958 10.24466,1.37942 3.31145,0.80487 6.05416,2.01191 8.22729,3.62163 l -6.36405,19.48886 c -2.79401,-2.18463 -6.05318,-3.27678 -9.77855,-3.27678 -7.34723,0 -11.02154,4.48476 -11.02154,13.45325 v 3.96648 h 21.4216 v 20.69647 h -20.80009 v 70.0237 h -24.21579 v -70.0237 h -12.88351 v -20.69647 h 12.88351 v -4.13956 c 0,-10.57821 2.79463,-18.97194 8.38269,-25.18088 5.69153,-6.20896 13.65901,-9.31242 23.90378,-9.31242 z" style="opacity:1;;fill-opacity:1;fill-rule:nonzero;stroke:none;stroke-width:15.10882378;stroke-linecap:butt;stroke-linejoin:round;stroke-miterlimit:4;stroke-dasharray:none;stroke-opacity:1" /> <path inkscape:connector-curvature="0" id="path967" d="m 199.82235,-674.32856 h 24.21454 v 127.97361 h -24.21454 z" style="opacity:1;;fill-opacity:1;fill-rule:nonzero;stroke:none;stroke-width:15.10882378;stroke-linecap:butt;stroke-linejoin:round;stroke-miterlimit:4;stroke-dasharray:none;stroke-opacity:1" /> <path inkscape:connector-curvature="0" id="path965" transform="scale(0.26458333)" d="m 2053.1367,-2548.6426 v 170.1328 c -22.6847,-28.2471 -54.1722,-42.3711 -94.457,-42.3711 -29.7248,0 -56.708,7.3906 -80.957,22.1661 -23.8581,14.7754 -42.6352,35.8485 -56.3243,63.2265 -13.6889,27.378 -20.5351,59.1024 -20.5351,95.1719 0,36.0695 6.8462,67.7938 20.5351,95.1719 13.6891,27.3779 32.4662,48.4569 56.3243,63.2324 24.249,14.7754 51.2322,22.1621 80.957,22.1621 43.0226,0 75.8777,-15.2089 98.5625,-45.6289 v 40.416 h 87.414 v -483.6797 z m -78.6152,211.2012 c 23.0758,0 42.2387,8.911 57.4922,26.7285 15.2534,17.3828 22.8789,40.8456 22.8789,70.3965 0,29.5509 -7.6255,53.2352 -22.8789,71.0527 -15.2535,17.3829 -34.4164,26.0762 -57.4922,26.0762 -23.467,0 -42.8266,-8.6933 -58.0801,-26.0762 -15.2534,-17.8175 -22.8828,-41.5018 -22.8828,-71.0527 0,-29.5509 7.6294,-53.0137 22.8828,-70.3965 15.2535,-17.8175 34.6131,-26.7285 58.0801,-26.7285 z" style="opacity:1;;fill-opacity:1;fill-rule:nonzero;stroke:none;stroke-width:57.10421753;stroke-linecap:butt;stroke-linejoin:round;stroke-miterlimit:4;stroke-dasharray:none;stroke-opacity:1" /> <path inkscape:connector-curvature="0" id="path963" transform="scale(0.26458333)" d="m 3342.2109,-2548.6426 v 170.1328 c -22.6846,-28.2471 -54.1723,-42.3711 -94.457,-42.3711 -29.7247,0 -56.7138,7.3906 -80.9629,22.1661 -23.8581,14.7754 -42.6293,35.8485 -56.3183,63.2265 -13.689,27.378 -20.5332,59.1024 -20.5332,95.1719 0,36.0695 6.8442,67.7938 20.5332,95.1719 13.689,27.3779 32.4602,48.4569 56.3183,63.2324 24.2491,14.7754 51.2382,22.1621 80.9629,22.1621 43.0226,0 75.8779,-15.2089 98.5625,-45.6289 v 40.416 h 87.4141 v -483.6797 z m -78.6152,211.2012 c 23.0756,0 42.2388,8.911 57.4922,26.7285 15.2535,17.3828 22.8789,40.8456 22.8789,70.3965 0,29.5509 -7.6254,53.2352 -22.8789,71.0527 -15.2534,17.3829 -34.4166,26.0762 -57.4922,26.0762 -23.4669,0 -42.8265,-8.6933 -58.0801,-26.0762 -15.2534,-17.8175 -22.8828,-41.5018 -22.8828,-71.0527 0,-29.5509 7.6294,-53.0137 22.8828,-70.3965 15.2536,-17.8175 34.6132,-26.7285 58.0801,-26.7285 z" style="opacity:1;;fill-opacity:1;fill-rule:nonzero;stroke:none;stroke-width:57.10421753;stroke-linecap:butt;stroke-linejoin:round;stroke-miterlimit:4;stroke-dasharray:none;stroke-opacity:1" /> <path inkscape:connector-curvature="0" id="path961" d="m 432.51124,-640.52498 c 5.89851,0 11.74596,0.74747 17.54098,2.24222 5.8985,1.37975 10.76257,3.33553 14.59142,5.8651 l -8.07196,19.144 c -7.34725,-4.59922 -15.36792,-6.89969 -24.06044,-6.89969 -5.17413,0 -9.05473,0.80555 -11.64177,2.41529 -2.58706,1.60971 -3.88059,3.67912 -3.88059,6.20867 0,2.87452 1.39733,4.8871 4.19136,6.0369 2.79401,1.1498 7.24415,2.24194 13.34961,3.27678 6.82985,1.26478 12.4179,2.64481 16.76416,4.13954 4.34627,1.37978 8.12305,3.96684 11.33101,7.76119 3.20794,3.79436 4.81154,9.08339 4.81154,15.86723 0,5.74902 -1.55172,10.86507 -4.65619,15.34929 -3.10449,4.48426 -7.65713,7.99174 -13.6591,10.5213 -5.8985,2.41459 -12.9357,3.62166 -21.1108,3.62166 -6.93333,0 -13.7111,-0.92045 -20.33398,-2.76012 -6.62287,-1.95467 -11.9008,-4.36876 -15.83314,-7.24329 l 8.07194,-19.31706 c 3.72537,2.64455 8.22615,4.83011 13.50375,6.55483 5.27761,1.60972 10.45174,2.41399 15.52237,2.41399 10.24477,0 15.36702,-2.81685 15.36702,-8.45089 0,-2.64455 -1.39603,-4.54225 -4.19006,-5.69205 -2.79403,-1.14981 -7.08855,-2.12705 -12.88357,-2.93192 -6.82984,-1.1498 -12.46971,-2.47172 -16.91944,-3.96648 -4.44974,-1.49475 -8.33033,-4.13988 -11.64178,-7.93424 -3.20793,-3.79436 -4.81283,-9.19828 -4.81283,-16.21209 0,-5.864 1.50107,-11.03811 4.50207,-15.52235 3.10447,-4.59922 7.5546,-8.16353 13.34963,-10.69312 5.8985,-2.52955 12.83063,-3.79469 20.79879,-3.79469 z" style="opacity:1;;fill-opacity:1;fill-rule:nonzero;stroke:none;stroke-width:15.10882378;stroke-linecap:butt;stroke-linejoin:round;stroke-miterlimit:4;stroke-dasharray:none;stroke-opacity:1" /> <path inkscape:connector-curvature="0" id="path959" transform="scale(0.26458333)" d="m 2356.0977,-2420.8809 c -25.4225,0 -50.2607,3.6982 -74.5098,11.086 -23.8579,7.3877 -44.3944,17.8134 -61.6035,31.2851 l 32.8574,71.0528 c 11.3424,-9.9952 25.0287,-17.8172 41.0644,-23.4668 16.4268,-6.0839 33.0512,-9.1231 49.8692,-9.1231 24.249,0 42.4359,6.0839 54.5605,18.252 12.1245,11.7334 18.1856,28.6786 18.1856,50.8418 h -72.7461 c -46.1516,0 -80.3744,9.3446 -102.668,28.0312 -21.9025,18.6866 -32.8535,44.3251 -32.8535,76.918 0,20.4249 4.6933,38.6787 14.0801,54.7578 9.3867,16.0792 22.8822,28.6827 40.4824,37.8086 17.9913,9.126 39.1103,13.6875 63.3594,13.6875 46.9338,0 79.0039,-16.2957 96.2129,-48.8887 v 43.6758 h 85.6562 v -200.123 c 0,-52.1487 -13.102,-91.0438 -39.3066,-116.6836 -26.2048,-26.0743 -63.7512,-39.1114 -112.6406,-39.1114 z m -2.3497,209.25 h 62.7735 v 35.8497 c -5.0846,15.6446 -13.6861,27.5946 -25.8106,35.8515 -12.1246,7.8222 -26.0116,11.7344 -41.6562,11.7344 -16.0356,0 -28.746,-3.6924 -38.1328,-11.0801 -8.9957,-7.8222 -13.4922,-18.2558 -13.4922,-31.293 0,-27.3779 18.7713,-41.0625 56.3183,-41.0625 z" style="opacity:1;;fill-opacity:1;fill-rule:nonzero;stroke:none;stroke-width:57.10421753;stroke-linecap:butt;stroke-linejoin:round;stroke-miterlimit:4;stroke-dasharray:none;stroke-opacity:1" /> <path inkscape:connector-curvature="0" id="path957" transform="scale(0.26458333)" d="m 3885.0625,-2420.8809 c -31.6804,0 -60.4249,7.8261 -86.2383,23.4707 -25.4225,15.21 -45.5673,36.7168 -60.4297,64.5293 -14.4712,27.378 -21.709,58.2332 -21.709,92.5645 0,34.7657 7.4345,65.8368 22.2969,93.2148 14.8623,27.3781 35.9832,48.8907 63.3614,64.5352 27.3777,15.2101 58.8636,22.8164 94.455,22.8164 57.1026,0 100.5154,-18.9013 130.2403,-56.709 l -48.6953,-58.668 c -10.9512,11.7335 -22.8805,20.4229 -35.7872,26.0723 -12.5155,5.215 -26.9871,7.8203 -43.414,7.8203 -23.8579,0 -43.806,-6.2978 -59.8418,-18.9004 -16.0358,-12.6025 -26.2017,-29.7675 -30.5039,-51.4961 h 238.7754 c 1.1731,-16.9482 1.7578,-26.0771 1.7578,-27.3808 0,-36.5041 -7.234,-68.4443 -21.7051,-95.8223 -14.0803,-27.8126 -33.6346,-49.1054 -58.666,-63.8808 -25.0314,-14.7755 -52.9985,-22.1661 -83.8965,-22.1661 z m 0.5879,76.918 c 20.338,0 37.5451,6.7392 51.625,20.2109 14.0802,13.0372 22.6854,30.6357 25.8144,52.7989 H 3807.623 c 3.1287,-22.5977 11.7342,-40.416 25.8145,-53.4531 14.0799,-13.0372 31.4837,-19.5567 52.2129,-19.5567 z" style="opacity:1;;fill-opacity:1;fill-rule:nonzero;stroke:none;stroke-width:57.10421753;stroke-linecap:butt;stroke-linejoin:round;stroke-miterlimit:4;stroke-dasharray:none;stroke-opacity:1" /> <path inkscape:connector-curvature="0" id="path955" d="m 1139.3523,-640.52498 v 24.83604 c -2.6905,-0.23004 -4.5017,-0.34484 -5.4331,-0.34484 -6.9333,0 -12.3669,2.18429 -16.2992,6.55354 -3.9323,4.25427 -5.898,10.69354 -5.898,19.31706 v 43.80823 h -24.2145 v -92.78932 h 23.1282 v 12.24559 c 2.8975,-4.48426 6.7781,-7.87684 11.6417,-10.17644 4.9672,-2.29963 10.659,-3.44986 17.0749,-3.44986 z" style="opacity:1;;fill-opacity:1;fill-rule:nonzero;stroke:none;stroke-width:15.10882378;stroke-linecap:butt;stroke-linejoin:round;stroke-miterlimit:4;stroke-dasharray:none;stroke-opacity:1" /> <path inkscape:connector-curvature="0" id="path953" d="m 246.04457,-639.14427 h 24.21456 v 48.46444 c 0,14.94746 5.63986,22.42078 16.91943,22.42078 5.79503,0 10.4515,-2.06942 13.96989,-6.2087 3.51838,-4.25429 5.27773,-10.52055 5.27773,-18.79915 v -45.87737 h 24.2158 v 92.78932 h -22.97409 v -11.03796 c -3.20794,4.02432 -7.03666,7.12778 -11.48641,9.31241 -4.44975,2.06966 -9.26186,3.105 -14.43599,3.105 -10.96913,0 -19.66057,-3.50752 -26.07647,-10.52132 -6.41591,-7.01381 -9.62445,-17.41887 -9.62445,-31.21652 z" style="opacity:1;;fill-opacity:1;fill-rule:nonzero;stroke:none;stroke-width:15.10882378;stroke-linecap:butt;stroke-linejoin:round;stroke-miterlimit:4;stroke-dasharray:none;stroke-opacity:1" /> <path inkscape:connector-curvature="0" id="path951" d="m 353.22694,-639.14427 h 24.21457 v 92.78932 h -24.21457 z" style="opacity:1;;fill-opacity:1;fill-rule:nonzero;stroke:none;stroke-width:15.10882378;stroke-linecap:butt;stroke-linejoin:round;stroke-miterlimit:4;stroke-dasharray:none;stroke-opacity:1" /> <path inkscape:connector-curvature="0" id="path949" d="m 671.56805,-639.14427 h 24.9914 l 23.12818,63.12403 23.90502,-63.12403 h 23.28354 l -35.23608,92.78932 h -24.9914 z" style="opacity:1;;fill-opacity:1;fill-rule:nonzero;stroke:none;stroke-width:15.10882378;stroke-linecap:butt;stroke-linejoin:round;stroke-miterlimit:4;stroke-dasharray:none;stroke-opacity:1" /> <path inkscape:connector-curvature="0" id="path947" d="m 776.75711,-639.14427 h 24.21449 v 92.78932 h -24.21449 z" style="opacity:1;;fill-opacity:1;fill-rule:nonzero;stroke:none;stroke-width:15.10882378;stroke-linecap:butt;stroke-linejoin:round;stroke-miterlimit:4;stroke-dasharray:none;stroke-opacity:1" /> </g> </g> </svg>